<svg id="Layer_1" data-name="Layer 1" xmlns="http://www.w3.org/2000/svg" viewBox="0 0 87 87"><defs><style>.cls-1{fill:#ffda00;}</style></defs><title>logo</title><rect class="cls-1" x="13.45" y="65.15" width="23.6" height="18"/><ellipse class="cls-1" cx="43.68" cy="40.66" rx="39.73" ry="38.31"/><path d="M43.55,75.55c-1.3,0-2.5-.1-3.8-.2l2-1.4-3.1-4.4v-.5l12.1-3.8,1.2-4.5-4.6-2.9-22.7,3.2L21.85,52l-3.8-3.1-4.6.3-1,10.1a34.91,34.91,0,0,1-5.9-19.5c0-19.8,16.6-35.9,37.1-35.9s37.1,16.1,37.1,35.9S64,75.55,43.55,75.55m-11.8,7.6H17.85l-3.5-4.6-.9-12.8,2.2-4.6.9-8.7h.2l2,1.6L22.15,65l24.4-3.4,1.3.9-.1.3-12.7,4v4l1.8,2.6-3.8,2.7,2.3,4.2ZM43.55.35C21.15.35,3,18.05,3,39.75a38.29,38.29,0,0,0,8,23.4l-1,2,1,14.7,5.1,6.8h17l6.8-5.8-1.1-2a37.08,37.08,0,0,0,4.7.3c22.4,0,40.6-17.7,40.6-39.4S65.85.35,43.55.35"/><polygon points="30.85 50.15 31.45 46.75 54.85 50.95 54.15 54.35 30.85 50.15"/><polygon points="40.45 22.35 41.85 19.15 34.05 16.05 22.95 19.05 23.85 22.35 33.85 19.65 40.45 22.35"/><polygon points="50.25 21.65 50.35 18.25 67.45 18.55 67.45 21.95 50.25 21.65"/><path d="M33.05,34.35a3.93,3.93,0,0,1-4-3.9,4,4,0,0,1,4-3.9,3.93,3.93,0,0,1,4,3.9,4,4,0,0,1-4,3.9m7.5-3.9a7.5,7.5,0,1,0-7.5,7.3,7.45,7.45,0,0,0,7.5-7.3"/><path d="M58.25,37.15a3.93,3.93,0,0,1-4-3.9,4,4,0,0,1,4-3.9,3.93,3.93,0,0,1,4,3.9,4.06,4.06,0,0,1-4,3.9m0-11.1a7.3,7.3,0,1,0,7.5,7.3,7.39,7.39,0,0,0-7.5-7.3"/></svg>